<svg xmlns="http://www.w3.org/2000/svg" xmlns:xlink="http://www.w3.org/1999/xlink" width="47.107" height="45.709" viewBox="0 0 47.107 45.709">
  <defs>
    <filter id="Ellipse_26" x="0" y="0" width="45.709" height="45.709" filterUnits="userSpaceOnUse">
      <feOffset dy="2" input="SourceAlpha"/>
      <feGaussianBlur stdDeviation="1" result="blur"/>
      <feFlood flood-opacity="0.322"/>
      <feComposite operator="in" in2="blur"/>
      <feComposite in="SourceGraphic"/>
    </filter>
    <filter id="Ellipse_25" x="2.255" y="0.181" width="44.852" height="44.852" filterUnits="userSpaceOnUse">
      <feOffset dy="2" input="SourceAlpha"/>
      <feGaussianBlur stdDeviation="1" result="blur-2"/>
      <feFlood flood-opacity="0.322"/>
      <feComposite operator="in" in2="blur-2"/>
      <feComposite in="SourceGraphic"/>
    </filter>
  </defs>
  <g id="Group_27673" data-name="Group 27673" transform="translate(3 1)">
    <g transform="matrix(1, 0, 0, 1, -3, -1)" filter="url(#Ellipse_26)">
      <ellipse id="Ellipse_26-2" data-name="Ellipse 26" cx="16.211" cy="16.211" rx="16.211" ry="16.211" transform="matrix(-0.97, -0.26, 0.26, -0.97, 34.32, 40.71)" fill="#0056a9"/>
    </g>
    <g id="Group_27374" data-name="Group 27374" transform="translate(2.255 0.181)">
      <g transform="matrix(1, 0, 0, 1, -5.25, -1.18)" filter="url(#Ellipse_25)">
        <ellipse id="Ellipse_25-2" data-name="Ellipse 25" cx="15.861" cy="15.861" rx="15.861" ry="15.861" transform="matrix(0.97, -0.26, 0.26, 0.97, 5.25, 9.39)" fill="#0056a9"/>
      </g>
      <path id="Icon_awesome-arrow-alt-circle-right" data-name="Icon awesome-arrow-alt-circle-right" d="M16.783.563A16.221,16.221,0,1,1,.563,16.783,16.218,16.218,0,0,1,16.783.563ZM9.2,19.661h7.587V24.3a.785.785,0,0,0,1.341.556L25.6,17.339a.778.778,0,0,0,0-1.105L18.124,8.712a.785.785,0,0,0-1.341.556v4.637H9.2a.787.787,0,0,0-.785.785v4.186A.787.787,0,0,0,9.2,19.661Z" transform="translate(2.934 2.753)" fill="#ffb02d"/>
    </g>
  </g>
</svg>
