<?xml version="1.0" encoding="UTF-8"?>
<svg xmlns="http://www.w3.org/2000/svg" onmouseup="{ if(window.parent.document.onmouseup) window.parent.document.onmouseup(arguments[0]);}" viewBox="0 0 47.107 45.709" height="45.709" width="47.107" xmlns:xlink="http://www.w3.org/1999/xlink"><defs><filter filterUnits="userSpaceOnUse" height="45.709" width="45.709" y="0" x="0" id="Ellipse_26"><feOffset input="SourceAlpha" dy="2"/><feGaussianBlur result="blur" stdDeviation="1"/><feFlood flood-opacity="0.322"/><feComposite in2="blur" operator="in"/><feComposite in="SourceGraphic"/></filter><filter filterUnits="userSpaceOnUse" height="44.852" width="44.852" y="0.181" x="2.255" id="Ellipse_25"><feOffset input="SourceAlpha" dy="2"/><feGaussianBlur result="blur-2" stdDeviation="1"/><feFlood flood-opacity="0.322"/><feComposite in2="blur-2" operator="in"/><feComposite in="SourceGraphic"/></filter></defs><g transform="translate(3 1)" data-name="Group 27673" id="Group_27673"><g filter="url(#Ellipse_26)" transform="matrix(1, 0, 0, 1, -3, -1)"><ellipse data-cppathid="10000" fill="#0056a9" transform="matrix(-0.97, -0.26, 0.26, -0.97, 34.32, 40.71)" ry="16.211" rx="16.211" cy="16.211" cx="16.211" data-name="Ellipse 26" id="Ellipse_26-2"/></g><g transform="translate(2.255 0.181)" data-name="Group 27374" id="Group_27374"><g filter="url(#Ellipse_25)" transform="matrix(1, 0, 0, 1, -5.25, -1.18)"><ellipse data-cppathid="10001" fill="#0056a9" transform="matrix(0.97, -0.26, 0.26, 0.97, 5.25, 9.39)" ry="15.861" rx="15.861" cy="15.861" cx="15.861" data-name="Ellipse 25" id="Ellipse_25-2"/></g><path data-cppathid="10002" fill="#ffb02d" transform="translate(2.934 2.753)" d="M16.783.563A16.221,16.221,0,1,1,.563,16.783,16.218,16.218,0,0,1,16.783.563ZM9.2,19.661h7.587V24.3a.785.785,0,0,0,1.341.556L25.6,17.339a.778.778,0,0,0,0-1.105L18.124,8.712a.785.785,0,0,0-1.341.556v4.637H9.2a.787.787,0,0,0-.785.785v4.186A.787.787,0,0,0,9.2,19.661Z" data-name="Icon awesome-arrow-alt-circle-right" id="Icon_awesome-arrow-alt-circle-right"/></g></g></svg>